<svg class="logo" width="98" height="102" viewBox="0 0 98 102" fill="none" xmlns="http://www.w3.org/2000/svg">
<path  d="M97.1 62.9C96.9 60.9 95.8 60.4 93.9 60.6C92.1 60.9 90.1 61.1 88.1 60.9C86.1 60.7 84.3 60.2 82.3 59.7C80.1 59.2 77.6 58.5 75.8 57C76.1 55.3 76.5 53.5 76.5 51.8C77.3 51 78.5 50.3 79.2 49.8C83 47.8 87.4 46.3 91.5 47.5C93.7 48 94.8 46 94 43.8C93.3 42 91.7 41.5 89.7 43C87.4 44.8 84.5 45.5 81.5 45.7C80.3 45.9 78.8 45.9 77.3 45.9H76.1C75.8 44.4 75.4 42.9 74.9 41.4C76.2 40.4 77.7 39.6 79.2 39.1C80.5 38.6 81.7 38.3 83 38.1C84.2 37.9 85.3 37.9 86.5 38.1C87.5 38.3 88.5 38.1 89 37.3C89.7 36.3 89.5 35 89.2 34C89.2 33.7 89 33.3 88.9 33.2C88.4 32.2 87.2 30.4 85.9 30.5C85.1 30.5 84.6 31.3 84.1 32C83.3 32.7 82.6 33.3 81.9 34.2C80.2 36 76.7 38.7 73.6 38.7C72.6 36.5 71.3 34.5 69.6 32.9C69.8 32.6 69.9 32.1 70.1 31.7C71.4 29.4 72.6 26.9 74.4 24.9C75.4 23.7 76.6 22.6 77.9 21.7C79.1 21 83.4 19.9 82.4 17.5C81.7 15.8 79.5 14 78 15C76.8 15.8 76.5 17.5 75.8 18.8C74.6 20.8 73.3 22.6 71.5 24.1C69.7 25.8 67.3 27.4 64.8 28.4C62.5 26.7 59.8 25.4 57 24.4C57 23.7 57 22.9 57.2 22.1C57.5 19.8 58.2 17.8 60 16.1C62.2 14.1 59.3 11.9 57.3 12.4C55.5 12.7 56.1 15.6 56.1 16.7C55.9 18.9 55.1 20.9 53.8 22.7C53 24 51 23.7 50.7 22.2C49.7 18.9 49.7 14.9 50 11.5C50.2 9.50001 50.5 7.30001 51.3 5.50001C51.8 4.30001 52.5 3.20001 52.1 1.80001C51.9 1.30001 51.6 0.800006 51.1 0.600006C49.4 -0.399994 47.6 0.800006 47.1 2.40001C46.8 3.60001 47.3 4.70001 47.4 5.90001C48.1 8.90001 47.9 11.9 47.2 14.9C46.7 17.6 46.5 22.1 43.9 23.6C43.1 23.8 42.2 23.9 41.4 24.1C35.9 23.8 33.7 14.9 34.7 10.6C34.9 9.90001 34 8.30001 33.5 8.30001C32.5 8.10001 31.2 8.50001 30.3 9.10001C29.8 9.40001 30 11.3 30.5 11.8C35.5 17.3 35.5 28 27.3 30C24.3 30.8 21.3 29.7 18.6 28.3C17.4 27.6 16.3 27 15.3 26C14.1 24.8 12.8 21.8 10.8 23.2C7.6 25.2 9.6 27.7 12.5 28.2C14.2 28.4 15.7 29 17 29.9C19.7 31.6 21.8 34.1 24.2 36.2C24.5 36.5 24.7 37.2 24.7 37.7C24.5 38 24.4 38.5 24 38.9C23.7 39.1 23 39.2 22.7 39.2C19.5 39.2 17 38.5 13.9 37.9C12.1 37.6 10.1 37.1 8.6 35.9C7.3 34.9 5.6 32.9 3.6 33.4C1.9 33.7 0.399996 35.6 0.599996 37.4C0.799996 39.4 1.8 39.9 3.6 39.7C5.6 39.7 7.6 39.4 9.6 39.7C11.6 40 13.4 40.5 15.4 41C17.6 41.7 20.1 42.3 21.9 44L22.2 44.3C21.9 45.6 21.5 47.1 21.5 48.6C20.5 49.6 19.2 50.4 18.2 50.9C14.4 52.7 10 54.1 5.7 52.7C3.5 52 2.4 54 3 56.2C3.7 58 5.29999 58.7 7.29999 57.2C9.59999 55.4 12.6 54.9 15.5 54.7C17 54.7 18.5 54.7 20 54.9C20.5 54.9 21.2 54.9 21.7 55.1C21.9 56.6 22.2 57.9 22.7 59.3C21.4 60.5 19.5 61.3 17.9 61.8C16.6 62.1 15.2 62.5 13.9 62.6C12.7 62.8 11.6 62.6 10.4 62.4C9.4 62.2 8.4 62.2 7.9 63.1C7.2 64.1 7.2 65.4 7.6 66.4C7.6 66.7 7.8 67.1 7.9 67.2C8.4 68.2 9.4 70 10.7 70C11.5 70 12 69.2 12.7 68.7C13.5 68 14.2 67.4 15 66.5C16.8 64.7 20.8 62 24 62.3C24.8 64.3 26 66.1 27.3 67.8C27.1 68.3 26.8 69 26.6 69.5C25.3 71.8 23.9 74.2 22.1 76.2C21.1 77.4 19.9 78.4 18.4 79.2C17.2 79.9 12.9 80.9 13.7 83.2C14.2 84.7 16.4 86.5 18 85.7C19.2 85 19.7 83.2 20.3 82C21.5 80 23 78.3 24.8 76.8C26.8 75.1 29.3 73.3 32 72.6C34.2 74.3 36.7 75.8 39.3 76.8C39.3 77.6 39.3 78.5 39.1 79.3C38.8 81.6 37.9 83.6 36.1 85.1C33.8 86.9 36.6 89.3 38.8 88.9C40.6 88.6 40.1 85.9 40.1 84.6C40.3 82.4 41.3 80.4 42.6 78.8C43.6 77.6 45.4 78.1 45.8 79.5C46.6 83 46.5 86.8 46.1 90.2C45.9 92.2 45.4 94.4 44.6 96.2C44.1 97.4 43.3 98.5 43.6 99.7C43.8 100.2 44.1 100.7 44.6 101C46.3 102.2 48.3 101 48.6 99.3C48.9 98.1 48.6 97 48.4 95.6C47.9 92.6 48.2 89.6 48.9 86.6C49.6 83.9 49.9 79.6 52.6 78.1C53.6 77.9 54.4 77.8 55.3 77.6C60.6 78.3 62.5 87.1 61.3 91.3C61.1 92 61.8 93.6 62.5 93.8C63.5 94 64.8 93.8 65.8 93.1C66.3 92.8 66.3 90.9 65.8 90.4C63.3 87.4 62.8 83.4 63 79.6C63 77.9 63.5 76.4 64.2 75.3C67 70 74.7 69.5 80.1 72.1C81.3 72.6 82.6 73.4 83.4 74.4C84.6 75.6 86.1 78.4 88.1 77.1C91.3 74.9 89.1 72.6 86.1 72.3C84.4 72.1 82.9 71.6 81.4 70.8C78.6 69.3 76.4 66.8 73.9 64.8C73.7 64.6 73.6 64.3 73.4 64C73.7 63.3 74.1 62.7 74.4 61.8C74.7 61.6 74.9 61.6 75.2 61.6C78.4 61.6 81 61.9 84 62.6C85.8 62.9 87.8 63.4 89.3 64.4C90.8 65.4 92.5 67.2 94.5 66.7C95.9 66.6 97.4 64.7 97.1 62.9Z" fill="black"/>
</svg>
